<svg aria-hidden="true" style="position:absolute;width:0;height:0;overflow:hidden" xmlns="http://www.w3.org/2000/svg">
    <defs>
        <symbol id="instagram" viewBox="0 0 48 48">
            <path d="M24.0007 6.54541C19.2605 6.54541 18.6656 6.56614 16.8038 6.65087C14.9457 6.73596 13.6774 7.03014 12.5676 7.46177C11.4196 7.90759 10.4458 8.50396 9.47568 9.4745C8.5048 10.4447 7.90846 11.4185 7.4612 12.5661C7.02848 13.6763 6.73395 14.945 6.65031 16.8025C6.56704 18.6643 6.54523 19.2596 6.54523 24C6.54523 28.7403 6.56632 29.3334 6.65068 31.1952C6.73613 33.0534 7.0303 34.3218 7.46156 35.4316C7.90773 36.5796 8.50408 37.5534 9.47459 38.5236C10.4444 39.4945 11.4182 40.0923 12.5654 40.5381C13.6759 40.9698 14.9446 41.264 16.8024 41.349C18.6641 41.4338 19.2587 41.4545 23.9985 41.4545C28.7391 41.4545 29.3322 41.4338 31.1939 41.349C33.0521 41.264 34.3218 40.9698 35.4324 40.5381C36.58 40.0923 37.5523 39.4945 38.5221 38.5236C39.493 37.5534 40.0893 36.5796 40.5366 35.432C40.9656 34.3218 41.2602 33.053 41.3474 31.1956C41.4311 29.3338 41.4529 28.7403 41.4529 24C41.4529 19.2596 41.4311 18.6647 41.3474 16.8029C41.2602 14.9447 40.9656 13.6763 40.5366 12.5665C40.0893 11.4185 39.493 10.4447 38.5221 9.4745C37.5512 8.50359 36.5803 7.90723 35.4313 7.46177C34.3186 7.03014 33.0495 6.73596 31.1914 6.65087C29.3296 6.56614 28.7369 6.54541 23.9952 6.54541H24.0007ZM22.4349 9.69086C22.8996 9.69014 23.4182 9.69086 24.0007 9.69086C28.6609 9.69086 29.2133 9.70759 31.0536 9.79123C32.7553 9.86905 33.6789 10.1534 34.2942 10.3923C35.1087 10.7087 35.6894 11.0869 36.3 11.6978C36.9109 12.3087 37.289 12.8905 37.6061 13.705C37.845 14.3196 38.1297 15.2432 38.2072 16.945C38.2908 18.785 38.309 19.3378 38.309 23.996C38.309 28.6541 38.2908 29.2069 38.2072 31.0469C38.1294 32.7487 37.845 33.6723 37.6061 34.2869C37.2897 35.1014 36.9109 35.6814 36.3 36.292C35.6891 36.9029 35.1091 37.281 34.2942 37.5974C33.6797 37.8374 32.7553 38.121 31.0536 38.1989C29.2136 38.2825 28.6609 38.3007 24.0007 38.3007C19.3401 38.3007 18.7878 38.2825 16.9478 38.1989C15.2461 38.1203 14.3224 37.836 13.7068 37.597C12.8923 37.2807 12.3105 36.9025 11.6996 36.2916C11.0887 35.6807 10.7106 35.1003 10.3935 34.2854C10.1546 33.6709 9.86985 32.7472 9.7924 31.0454C9.70877 29.2054 9.69204 28.6527 9.69204 23.9916C9.69204 19.3305 9.70877 18.7807 9.7924 16.9407C9.87022 15.2389 10.1546 14.3152 10.3935 13.7C10.7098 12.8854 11.0887 12.3036 11.6996 11.6927C12.3105 11.0818 12.8923 10.7036 13.7068 10.3865C14.3221 10.1465 15.2461 9.86286 16.9478 9.78468C18.558 9.71196 19.1819 9.69014 22.4349 9.6865V9.69086ZM33.3175 12.589C32.1612 12.589 31.223 13.5261 31.223 14.6829C31.223 15.8392 32.1612 16.7774 33.3175 16.7774C34.4738 16.7774 35.412 15.8392 35.412 14.6829C35.412 13.5265 34.4738 12.5883 33.3175 12.5883V12.589ZM24.0007 15.0363C19.0507 15.0363 15.0373 19.0498 15.0373 24C15.0373 28.9501 19.0507 32.9618 24.0007 32.9618C28.9507 32.9618 32.9626 28.9501 32.9626 24C32.9626 19.0498 28.9504 15.0363 24.0003 15.0363H24.0007ZM24.0007 18.1818C27.2137 18.1818 29.8187 20.7865 29.8187 24C29.8187 27.213 27.2137 29.8181 24.0007 29.8181C20.7873 29.8181 18.1827 27.213 18.1827 24C18.1827 20.7865 20.7873 18.1818 24.0007 18.1818Z"/>
        </symbol>
        <symbol id="google" viewBox="0 0 48 48">
            <path fill-rule="evenodd" clip-rule="evenodd" d="M30.5838 16.7313C28.8985 15.1557 26.6494 14.2974 24.3223 14.3327C20.0641 14.3327 16.4476 17.1486 15.1581 20.9405C14.4744 22.9276 14.4744 25.0793 15.1581 27.0664H15.1641C16.4595 30.8524 20.0701 33.6684 24.3283 33.6684C26.5264 33.6684 28.4135 33.1173 29.8761 32.1439V32.1399C31.5974 31.0229 32.7729 29.2651 33.1388 27.2781H24.3224V21.117H39.7181C39.91 22.1869 40 23.2804 40 24.368C40 29.2343 38.2258 33.3485 35.1387 36.1351L35.1419 36.1376C32.437 38.5832 28.7245 40 24.3223 40C18.1509 40 12.5071 36.5902 9.73628 31.1875C7.42124 26.6666 7.42124 21.3404 9.73629 16.8195C12.5072 11.4109 18.1508 8.00108 24.3223 8.00108C28.3767 7.95405 32.2931 9.44729 35.2439 12.1633L30.5838 16.7313Z" />
        </symbol>
        <symbol id="youtube" viewBox="0 0 32 24">
            <path d="M31.6812 18.3923C31.6812 18.3923 31.3688 20.5985 30.4062 21.5673C29.1875 22.8423 27.825 22.8485 27.2 22.9235C22.725 23.2485 16.0063 23.2485 16.0063 23.2485H15.9937C15.9937 23.2485 9.275 23.2485 4.8 22.9235C4.175 22.8485 2.8125 22.8423 1.59375 21.5673C0.63125 20.5985 0.325 18.3923 0.325 18.3923C0.325 18.3923 0 15.7985 0 13.211V10.786C0 8.19854 0.31875 5.60479 0.31875 5.60479C0.31875 5.60479 0.63125 3.39853 1.5875 2.42978C2.80625 1.15479 4.40625 1.19854 5.11875 1.06104C7.68125 0.817286 16 0.742285 16 0.742285C16 0.742285 22.725 0.754786 27.2 1.07354C27.825 1.14854 29.1875 1.15479 30.4062 2.42978C31.3688 3.39853 31.6812 5.60479 31.6812 5.60479C31.6812 5.60479 32 8.19229 32 10.786V13.211C32 15.7985 31.6812 18.3923 31.6812 18.3923ZM12.6938 7.84229V16.836L21.3375 12.3235L12.6938 7.84229Z"/>
        </symbol>
        <symbol id="apple" viewBox="0 0 48 48">
            <path d="M39.3293 34.6135C38.7548 35.9412 38.0747 37.1632 37.2868 38.2868C36.2128 39.8184 35.3334 40.8787 34.6557 41.4674C33.6052 42.4338 32.4796 42.9287 31.2742 42.9569C30.4089 42.9569 29.3654 42.7106 28.1507 42.211C26.932 41.7137 25.812 41.4674 24.7879 41.4674C23.7139 41.4674 22.562 41.7137 21.33 42.211C20.096 42.7106 19.102 42.9709 18.342 42.9967C17.1861 43.046 16.034 42.537 14.884 41.4674C14.15 40.8271 13.232 39.7293 12.1321 38.1742C10.9521 36.5135 9.982 34.5877 9.22198 32.3922C8.40803 30.0208 8 27.7245 8 25.5013C8 22.9547 8.55014 20.7583 9.65206 18.9177C10.5181 17.4392 11.6702 16.273 13.1121 15.4168C14.5541 14.5607 16.1121 14.1244 17.7899 14.0965C18.708 14.0965 19.9119 14.3806 21.4081 14.9388C22.9 15.4989 23.8579 15.783 24.2779 15.783C24.5919 15.783 25.656 15.4509 27.4601 14.7887C29.1661 14.1746 30.6059 13.9204 31.7854 14.0205C34.9817 14.2785 37.383 15.5388 38.9799 17.8094C36.1214 19.5418 34.7073 21.9684 34.7355 25.0812C34.7612 27.5059 35.6406 29.5236 37.3689 31.1256C38.1521 31.8692 39.0268 32.4439 40 32.852C39.789 33.4642 39.5662 34.0506 39.3293 34.6135ZM31.9988 5.76022C31.9988 7.66065 31.3047 9.43508 29.9212 11.0775C28.2515 13.03 26.232 14.1582 24.042 13.9802C24.0141 13.7522 23.9979 13.5122 23.9979 13.2601C23.9979 11.4356 24.7919 9.48316 26.202 7.88674C26.9059 7.07845 27.8013 6.40636 28.887 5.87022C29.9704 5.34209 30.9952 5.05002 31.959 5C31.9871 5.25406 31.9988 5.50813 31.9988 5.76019V5.76022Z"/>
        </symbol>
        <symbol id="exit" viewBox="0 0 11 11">
            <path d="M11 1.10786L9.89214 0L5.5 4.39214L1.10786 0L0 1.10786L4.39214 5.5L0 9.89214L1.10786 11L5.5 6.60786L9.89214 11L11 9.89214L6.60786 5.5L11 1.10786Z"/>
        </symbol>
        <symbol id="man" viewBox="0 0 18 18">
            <path d="M9 9C10.6575 9 12 7.6575 12 6C12 4.3425 10.6575 3 9 3C7.3425 3 6 4.3425 6 6C6 7.6575 7.3425 9 9 9ZM9 10.5C6.9975 10.5 3 11.505 3 13.5V14.25C3 14.6625 3.3375 15 3.75 15H14.25C14.6625 15 15 14.6625 15 14.25V13.5C15 11.505 11.0025 10.5 9 10.5Z"/>
        </symbol>
        <symbol id="telephone" viewBox="0 0 18 18">
            <path d="M13.996 11.1226L12.1579 10.9127C11.7164 10.8621 11.2822 11.0141 10.971 11.3252L9.63945 12.6568C7.59144 11.6147 5.91251 9.94301 4.87041 7.88775L6.20922 6.54894C6.5204 6.23775 6.67237 5.80355 6.62171 5.3621L6.41185 3.53842C6.325 2.8075 5.70988 2.2575 4.97173 2.2575H3.71976C2.902 2.2575 2.22175 2.93776 2.2724 3.75552C2.65595 9.93577 7.59868 14.8713 13.7717 15.2548C14.5894 15.3055 15.2697 14.6252 15.2697 13.8075V12.5555C15.2769 11.8246 14.7269 11.2095 13.996 11.1226Z"/>
        </symbol>
        <symbol id="email" viewBox="0 0 18 18">
            <path d="M15 3H3C2.175 3 1.5075 3.675 1.5075 4.5L1.5 13.5C1.5 14.325 2.175 15 3 15H15C15.825 15 16.5 14.325 16.5 13.5V4.5C16.5 3.675 15.825 3 15 3ZM14.7 6.1875L9.3975 9.5025C9.1575 9.6525 8.8425 9.6525 8.6025 9.5025L3.3 6.1875C3.1125 6.0675 3 5.865 3 5.6475C3 5.145 3.5475 4.845 3.975 5.1075L9 8.25L14.025 5.1075C14.4525 4.845 15 5.145 15 5.6475C15 5.865 14.8875 6.0675 14.7 6.1875Z"/>
        </symbol>
    </defs>
</svg>